<svg width="35" height="35" viewBox="0 0 35 35" fill="none" xmlns="http://www.w3.org/2000/svg">
<path d="M6.86758 0H20.6027V3.43379H6.86758V0ZM3.43379 6.86758V3.43379H6.86758V6.86758H3.43379ZM3.43379 20.6027H0V6.86758H3.43379V20.6027ZM6.86758 24.0365H3.43379V20.6027H6.86758V24.0365ZM20.6027 24.0365V27.4703H6.86758V24.0365H20.6027ZM24.0365 20.6027H20.6027V24.0365H24.0365V27.4703H27.4703V30.9041H30.9041V34.3379H34.3379V30.9041H30.9041V27.4703H27.4703V24.0365H24.0365V20.6027ZM24.0365 6.86758H27.4703V20.6027H24.0365V6.86758ZM24.0365 6.86758V3.43379H20.6027V6.86758H24.0365Z" fill="black"/>
</svg>
